<?xml version="1.0" encoding="UTF-8"?>
<svg id="Layer_2" data-name="Layer 2" xmlns="http://www.w3.org/2000/svg" viewBox="0 0 856.48 842.44">
  <defs>
    <style>
      .cls-1 {
        fill: #feeec1;
      }
    </style>
  </defs>
  <g id="Layer_1-2" data-name="Layer 1">
    <path class="cls-1" d="m855.79,480.46c-1.24-1.8-2.65-2.18-4.73-1.04-4.52,2.46-8.98,5.03-13.49,7.52-1.45.81-2.94,1.54-4.45,2.25-.62.29-1.33-.34-1.2-1.05.52-2.76,1.2-5.5,1.56-8.28.68-5.09,1.68-10.12,2.31-15.22.7-5.58,1.92-11.09,1.76-16.77-.02-.99-.14-2.07.17-2.97,1.05-3.09.72-6.26.81-9.41.06-1.83-.27-3.76.21-5.47.91-3.29.73-6.59.75-9.91.04-7.49.02-14.99.03-22.48-.03-1.16.19-2.41-.16-3.47-1.05-3.26-.76-6.58-.82-9.89-.04-2.5-.03-4.99-.05-7.49-.48-.21-1.03-.34-1.12-1-.72-1.02-.39-2.19-.46-3.3-.11-1.62-.19-3.23-.27-4.85-.2,0-.4,0-.59,0-3.93-38.52-13.26-76.02-27.88-111.97.1,0,.21,0,.31,0,.13-1.51.03-2.94-.64-4.37-1.63-3.44-3.11-6.95-4.71-10.41-.76-1.66-1.74-3.23-1.67-5.15-1.44-1.25-1.91-3.09-2.75-4.69-4.41-8.38-8.49-16.95-13.2-25.16-6.85-11.93-14.2-23.58-22.31-34.71-5.85-8.03-11.78-16.03-18.29-23.54-1.38-1.6-1.45-3.3-1.24-5.13.18-1.47.79-2.91.82-4.38.15-6.47.91-12.87,1.84-19.26.26-1.8-.58-3.26-1.86-4.4-1.66-1.48-4.84-.33-5.62,2.13-.59,1.88-1.19,3.89-1.13,5.82.12,4.03-1.3,7.86-1.22,11.86.02.92-1.16,1.5-1.78.9-2.51-2.43-4.97-4.9-7.41-7.39-.62-.63-.7-1.5-.44-2.34,1.35-4.5.41-9.24,1.6-13.79.57-2.19.37-4.57.8-6.88.51-2.74.22-5.63.2-8.45,0-.87-.52-1.58-1.28-2.02-2.35-1.39-5.77.02-6.41,2.65-.15.64-.15,1.33-.14,1.99.04,4.98-1.45,9.84-1.16,14.87.08,1.39-.72,2.84-1.11,4.27-2.81-.95-2.82-.94-4.68-2.77-3.91-3.86-7.66-7.9-11.76-11.53-5.57-4.95-11.42-9.58-17.13-14.37-.5-.41-.82-1.03-1.23-1.55-1.03-.11-1.88-.58-2.63-1.29-3.13-3.01-6.7-5.41-10.33-7.75-.11.32-.24.6-.37.9-25.78-19.02-53.67-34.93-83.42-47.51C537.27,10.84,483.58,0,428.24,0s-109.03,10.84-159.57,32.22c-31.16,13.18-60.28,30.01-87.07,50.23-.71.35-1.38.79-2.04,1.27-1.86,1.38-3.74,2.72-5.61,4.08-3.84,3.35-7.66,6.76-11.54,10.07-.96.82-1.92,1.63-2.87,2.46-5.52,4.67-10.98,9.39-16.1,14.5-4,3.99-8,8-11.99,12.01-1.4,1.41-2.7,2.89-3.91,4.5-.01.02-.03.04-.05.06-1.16,1.25-2.33,2.5-3.48,3.77-.54.53-1.08,1.06-1.61,1.59-.6.6-1.37,1.03-2.23.96-4.02-.3-7.84,1.37-11.86,1.09-.82-.06-1.73-.07-2.47.22-2.25.88-4.58.84-6.89.72-2.56-.14-4.94.56-7.36,1.09-1.86.42-2.51,1.31-2.6,3.12-.15,3.11,2.05,5.32,4.99,4.51,4.05-1.11,8.27-.42,12.3-1.59,1.54-.45,3.31-.1,4.97-.08.49.01,1.08.13,1.17.7.08.41.01.94-.2,1.29-.48.58-.95,1.16-1.42,1.73-1.09,1.16-2.26,2.24-3.06,3.67-.15.27-.33.52-.5.76-.21.27-.43.53-.64.8-1.72,1.9-4.1,2.78-6.75,2.91-3.81.18-7.59.68-11.37.9-4.15.25-8.21,1.11-12.35,1.26-2.5.09-4.18,2.02-4.03,4.16.13,1.97,1.76,3.58,4,3.68,1.98.09,3.95-.05,5.94-.38,4.4-.72,8.86-1.06,13.29-1.53.62-.06,1.31-.13,1.88.54-.02.49-.18.93-.4,1.35-11.7,16.03-22.2,32.87-31.45,50.47-.66,1.23-1.32,2.47-1.96,3.72-.34.67-.68,1.35-1.02,2.02-.34.69-.69,1.38-1.03,2.07-3.84,7.69-7.46,15.5-10.83,23.46-14.18,33.52-23.71,68.42-28.53,104.27-.61.26-1.16.61-1.54,1.21-1.07,1.73-1,4.37.24,5.61.13.13.27.24.4.35-.78,6.66-1.39,13.34-1.84,20.06-.29.83-.76,1.57-1.7,2.08.72,1.32,1.13,2.71,1.33,4.14-.38,7.25-.57,14.54-.57,21.86s.19,14.39.56,21.54c-.16.58-.42,1.13-.88,1.65-2.77,3.08-5.49,6.21-8.24,9.32-2.86,3.23-5.73,6.45-8.59,9.68-.22.25-.44.51-.6.8-.84,1.5-.67,4.63.34,5.69,1.2,1.26,2.73,1.07,4.2.75,1.01-.22,1.71-1.03,2.32-1.82.71-.91,1.27-1.96,2.06-2.81,2.36-2.56,4.89-4.96,6.9-7.85.74-1.06,1.59-2.44,3.36-2.47.35,4.21.76,8.41,1.23,12.59-.18.89-.61,1.68-1.28,2.43-5.29,5.94-10.49,11.98-15.87,17.85-1.52,1.66-1.97,3.38-1.74,5.46.14,1.26.72,2.28,1.99,2.59,1.28.32,2.78.62,3.7-.62,2.28-3.09,5.43-5.36,7.62-8.56,1.48-2.17,3.59-3.92,5.48-5.78.7-.69,1.44-.58,1.86.13,5.02,34,14.31,67.13,27.79,99.01,20.65,48.82,50.21,92.66,87.85,130.31,18.04,18.04,37.52,34.2,58.27,48.44v.03c.14.09.29.18.43.27,8.94,6.11,18.1,11.89,27.51,17.27.14.18.27.36.38.58.35.08.71.12,1.05.22,2.55,1.45,5.11,2.87,7.69,4.27,3.15,1.79,6.32,3.54,9.61,5.01,8.3,4.19,16.75,8.13,25.36,11.77,13.02,5.51,26.25,10.31,39.65,14.41,1.5.48,3.01.95,4.51,1.44,3.31,1.06,6.64,2.1,10.04,2.86,1.96.44,3.91.9,5.86,1.37,1.5.38,3.01.74,4.52,1.1,7.63,1.88,15.26,3.78,23.06,4.92,6.22.92,12.4,2.02,18.64,2.77.84.1,1.68.18,2.53.26,3.01.37,6.02.71,9.03,1.01,4.84.76,9.72.93,14.58,1.49,2.31.26,4.13.81,5.66,2.55,1.2,1.37,2.76,2.48,3.8,3.95,3.39,4.8,7.88,8.54,11.87,12.78.79.84,1.65,1.64,2.58,2.33.7.51,1.59.53,2.37.08,1.36-.78,2.29-1.85,2.41-3.54.1-1.61-.4-2.89-1.55-4.03-3.4-3.4-6.88-6.74-9.7-10.68-.47-.65-1.27-1.14-.69-2.35h4.34c2,0,4,.04,5.99,0,1.44-.04,2.58.48,3.56,1.49,1.38,1.45,3.03,2.7,4.13,4.32,1.8,2.66,4.11,4.79,6.27,7.08,1.83,1.93,3.86,3.65,5.25,5.99.57.97,1.53,1.76,2.46,2.45,1.45,1.08,3.96.88,5.08-.26,1.09-1.1,1.06-2.63-.14-4.53-.63-.98-1.2-2.03-1.99-2.86-2.83-3.04-5.07-6.59-8.2-9.36-1.11-.98-2.17-2.09-2.12-3.84,2.8-1.16,5.7-1.49,8.69-1.47s6.01.07,8.95-.37c1.81-.27,3.59-.49,5.42-.62,4.62-.33,9.24-.75,13.86-1.14.32-.03.64-.18.96-.23,3.27-.53,6.53-1.09,9.8-1.58,5.23-.77,10.55-1.18,15.7-2.32,10.66-2.36,21.37-4.54,31.9-7.5,3.36-.94,6.63-2.14,9.99-3.05,12.68-3.43,25.01-7.94,37.13-12.92,11.68-4.79,23.19-10.02,34.32-16.04,5.39-2.91,10.82-5.75,16.1-8.88,2.67-1.59,5.07-3.85,8.31-4.4.42-.36.83-.72,1.24-1.08.02-.41.04-.83.06-1.24,26.4-16.46,50.9-35.9,73.21-58.21,18.94-18.94,35.83-39.45,50.57-61.37,1.46-.25,2.4-1.17,3.23-2.61,2.14-3.75,4.59-7.32,6.78-11.04,4.21-7.16,8.59-14.23,12.42-21.59,5.84-11.2,11.47-22.51,16.3-34.22,5.32-12.91,10.31-25.91,14.24-39.31.63-2.13,1.7-3.92,3.73-5.09,3.02-1.74,5.94-3.65,8.95-5.42,4.29-2.53,8.62-5,12.91-7.53.7-.41,1.39-.92,1.9-1.54,1.32-1.6,1.29-3.28.05-5.01-1.06-1.47-2.47-1.89-4.43-1.06-1.52.65-2.98,1.48-4.4,2.33-3.71,2.21-7.38,4.49-11.08,6.72-.58.35-1.26.54-1.89.18-.88-.5-.77-1.35-.57-2.18.59-2.41,1.18-4.83,1.79-7.24.52-2,1.44-3.68,3.45-4.62.89-.42,1.64-1.13,2.5-1.63,6.16-3.62,12.33-7.21,18.48-10.83.86-.5,1.71-1.06,2.41-1.74,1.27-1.26,1.34-3.08.33-4.56Zm-412.26,327.14c-.02-.06-.04-.1-.06-.16,2.77-3.12,5.68-6.29,9.13-8.87,1.48-1.11,2.87-2.29,4.06-3.66,1.83-2.1,1.51-4.88-.61-6.61-1.02-.83-2.14-1.02-3.21-.24-1.61,1.16-3.4,2.09-4.76,3.61-4.88,5.47-10.95,9.7-16,14.99-.5.52-1.03.92-1.6,1.22-.75,0-1.49.01-2.24.01-3.92,0-7.82-.06-11.7-.18.12-.31.16-.68.37-.88,3.83-3.69,7.18-7.89,11.62-10.92.82-.55,1.53-1.3,2.17-2.05,1.52-1.78,1.51-4.21.06-5.92-1.43-1.69-3.04-1.85-5.3-.27-1.22.85-2.26,1.96-3.35,2.98-5.47,5.1-10.93,10.2-16.38,15.32-.52.48-1.05.91-1.66,1.18-187.54-11.29-340.46-153.05-368.99-335.5.01-.23.02-.46.03-.68.04-.89,1.13-1.33,1.87-.76,3.64,2.88,7.3,5.74,10.87,8.7,1.3,1.09,2.61,2.08,4.24,2.54,1.98.56,3.65-.68,3.89-2.72.21-1.83-.44-3.25-1.8-4.41-2.54-2.14-5.09-4.26-7.61-6.41-3.92-3.33-7.83-6.66-11.73-10-.5-.44-.94-.95-1.41-1.42-.18-.18-.34-.38-.49-.58-.52-4.54-.97-9.1-1.34-13.68.02-.02.04-.04.06-.05.23-.16.63-.16.92-.09.31.08.61.28.85.5,3.71,3.32,7.43,6.63,11.1,9.99,1.5,1.37,3.01,2.67,5.09,2.96,1.32.19,2.69.18,3.68-.99.9-1.07,1.02-3.41.17-4.71-.46-.69-1.03-1.33-1.66-1.86-3.26-2.82-6.56-5.59-9.84-8.38-3.29-2.8-6.57-5.59-9.84-8.4-.55-.47-1-.98-1.35-1.55-.32-6.53-.49-13.11-.49-19.72,0-5.45.11-10.87.33-16.26,1.74-.2,3.16-1.55,3.4-3.36.32-2.39-.49-4.19-2.87-5.08-.04.01-.07.02-.11.03.21-3.45.47-6.88.77-10.31.06-.11.1-.23.16-.34,0-.52,0-1.05.02-1.57.25-2.68.52-5.35.82-8.02.12-.1.25-.19.4-.27.24-.13.52-.23.83-.3-.12-.12-.23-.23-.35-.34-.25-.25-.48-.51-.69-.77,8.07-68.88,33.8-132.44,72.52-186.02.45.05.88.35,1.05.84.11.31.33.63.31.93-.36,4.52,1.32,8.87,1.11,13.37-.07,1.54.14,3.04,1.12,4.26.97,1.2,2.26,2.12,3.89,1.7,1.53-.4,2.49-1.57,2.86-3.15.08-.32.09-.66.09-.99-.03-1.66.27-3.42-.17-4.97-.88-3.11-.78-6.25-.86-9.4-.03-.82-.01-1.7-.26-2.47-1.23-3.73-.58-7.59-.69-11.38,2.74-3.53,5.54-7.01,8.4-10.44.16.05.34.12.53.25-.11,4.57,1.44,9.05,1.2,13.76-.09,1.93.59,3.92,1.04,5.85.14.6.57,1.23,1.05,1.62,1.11.91,3.42.9,4.71,0,1.28-.9,2.35-2.09,1.72-3.78-.86-2.27-.56-4.6-.69-6.91-.07-1.32-.11-2.65-.28-3.97-.53-4.26-1.12-8.52-1.66-12.78-.08-.66,0-1.33-.04-2-.02-.3-.02-.59,0-.88C202.94,64.18,309.61,12,428.24,12c107.69,0,205.53,43,277.24,112.73-2.03.11-3.94.05-5.9-.43-3.75-.93-7.59-.57-11.4-.42-1.47.06-2.31,1.15-2.49,2.65-.3,2.52.49,3.46,2.98,4.29,4.31,1.45,8.86,1.09,13.27,1.68,4.11.55,8.3.97,12.47,1.2,3.79,3.93,7.51,7.93,11.14,12.01-.23-.02-.45-.06-.67-.1-1.61-.34-3.17-.86-4.88-.84-2.98.03-5.93-.01-8.89-.8-1.71-.45-3.63-.18-5.46-.17-2.01,0-2.84,1.42-3.51,3.03-.67,1.62.54,2.44,1.43,3.38.82.88,1.79,1.56,3.04,1.49,3.34-.21,6.59.94,9.86.92,5-.02,9.83,1.36,14.85,1.27.47,0,.93.03,1.38.09,58.31,69.24,93.48,158.58,93.48,255.98,0,25.07-2.34,49.61-6.79,73.41-.29-.45-.5-1.05-.76-1.47-1.03-1.71-2.03-3.43-3.07-5.13-1.73-2.84-3.4-5.72-5.25-8.47-1.43-2.12-3.72-2.17-5.53-.38-1.19,1.18-1.58,2.6-.93,4.1.72,1.68,1.61,3.29,2.54,4.86,3.54,6.01,7.12,11.99,10.68,18-1.07,4.91-2.24,9.79-3.49,14.64-.05-.07-.09-.13-.14-.2-2.21-3.71-4.4-7.43-6.66-11.11-1.12-1.84-2.28-3.67-3.62-5.35-1.15-1.43-2.59-1.46-3.95-.34-.64.52-1.22,1.13-1.76,1.76-.85.98-1.01,2.07-.33,3.22,4.3,7.3,8.5,14.66,12.97,21.85.2.32.37.64.53.95-46.59,161.25-192.65,280.71-367.11,287.33Z"/>
  </g>
</svg>